<?xml version="1.0" encoding="UTF-8"?>
<svg version="1.1" xmlns="http://www.w3.org/2000/svg" width="500" height="500">
<path d="M0 0 C2.125 0.375 2.125 0.375 4 1 C4.05945801 2.1763501 4.05945801 2.1763501 4.12011719 3.37646484 C4.92665879 18.59158253 5.93927877 33.27495748 10 48 C13.54594371 48 15.93939489 44.76066438 18.5 42.5 C24.72972973 37 24.72972973 37 27 37 C27 36.34 27 35.68 27 35 C23.37 35 19.74 35 16 35 C15.01 33.02 15.01 33.02 14 31 C17.13061967 27.86938033 21.34527903 28.21748586 25.58984375 27.7890625 C29.73798951 27.41750671 29.73798951 27.41750671 33 25 C33.4621816 21.80140985 33.7883391 18.63081911 34.03515625 15.41015625 C34.2421875 13.40625 34.2421875 13.40625 35 10 C37.0703125 8.53125 37.0703125 8.53125 39 8 C40.74685308 11.82745451 41.34886333 15.12442723 41.625 19.3125 C41.73714844 20.91544922 41.73714844 20.91544922 41.8515625 22.55078125 C41.90054688 23.35902344 41.94953125 24.16726562 42 25 C46.81122847 23.47444034 46.81122847 23.47444034 50 20 C48.68 19.67 47.36 19.34 46 19 C46 17.68 46 16.36 46 15 C47.32 14.67 48.64 14.34 50 14 C50.1546875 13.0409375 50.1546875 13.0409375 50.3125 12.0625 C50.6528125 11.0415625 50.6528125 11.0415625 51 10 C51.99 9.67 52.98 9.34 54 9 C54.556875 9.804375 55.11375 10.60875 55.6875 11.4375 C58.34162502 14.37855745 59.13456933 14.7477875 63 15 C66.07929303 14.0116495 66.07929303 14.0116495 69.375 12.4375 C84.07108805 6.12102268 100.09457083 2.43577731 116 1 C117.06863281 0.89042969 118.13726562 0.78085937 119.23828125 0.66796875 C166.87074616 -3.69397859 215.57293296 9.60919527 252.69921875 40.19140625 C282.81049482 65.59084992 305.27702735 97.49903345 315.17163086 136.05761719 C315.58167358 137.01909668 315.58167358 137.01909668 316 138 C319.17705524 139.05901841 321.12098987 139.03813599 324.44140625 138.87890625 C325.56699951 138.83024414 326.69259277 138.78158203 327.85229492 138.73144531 C329.68884644 138.64781738 329.68884644 138.64781738 331.5625 138.5625 C342.50751711 138.13500938 353.448176 137.83421111 364.40182495 137.76681519 C365.92492582 137.75561008 367.44799639 137.73895209 368.97097778 137.71682739 C371.10975651 137.68709249 373.24775787 137.6768132 375.38671875 137.671875 C376.61608154 137.6625293 377.84544434 137.65318359 379.11206055 137.64355469 C380.06508057 137.76118164 381.01810059 137.87880859 382 138 C384 141 384 141 384 145 C383.34 145 382.68 145 382 145 C382 145.66 382 146.32 382 147 C381.01 147 380.02 147 379 147 C379 147.66 379 148.32 379 149 C376.61128742 150.60359005 374.22136026 152.09615587 371.75 153.5625 C365.26676971 157.4906344 359.2108678 161.69498421 353.2578125 166.3828125 C351 168 351 168 349 168 C348.67 168.99 348.34 169.98 348 171 C346.44551866 172.34721716 344.88506729 173.68796187 343.30078125 175 C336.04196688 181.3098692 329.42120637 188.04889733 324 196 C323.34 196 322.68 196 322 196 C321.87995605 196.80405273 321.75991211 197.60810547 321.63623047 198.43652344 C319.38283476 213.29664003 316.98187276 227.78492441 312.234375 242.09375 C311.14859464 245.36691878 310.45547166 248.573118 310 252 C310.804375 252.53625 311.60875 253.0725 312.4375 253.625 C315.46508424 256.43105369 315.72510809 257.96825194 316 262 C314.35 263.32 312.7 264.64 311 266 C311.66 266.99 312.32 267.98 313 269 C312.82806112 271.75102202 312.1612949 272.82078344 310.3125 274.875 C308 276 308 276 304.9375 275.25 C303.968125 274.8375 302.99875 274.425 302 274 C301.01 273.67 300.02 273.34 299 273 C298.46632813 273.93199219 297.93265625 274.86398437 297.3828125 275.82421875 C288.15089832 291.71662945 276.9980248 305.02324856 264 318 C263.43539063 318.61101562 262.87078125 319.22203125 262.2890625 319.8515625 C240.01160432 343.59326675 206.24013957 357.96006165 175 365 C174.31583008 365.16516113 173.63166016 365.33032227 172.92675781 365.50048828 C150.11540645 370.85191399 121.73786317 370.48900371 99 365 C98.23848633 364.82839355 97.47697266 364.65678711 96.69238281 364.47998047 C64.61126192 357.18644648 31.63029075 341.37605603 9 317 C7.7934375 315.7934375 7.7934375 315.7934375 6.5625 314.5625 C5.716875 313.716875 4.87125 312.87125 4 312 C3.45085937 311.49726563 2.90171875 310.99453125 2.3359375 310.4765625 C-9.96548952 298.88385967 -20.31047479 283.58439194 -27.203125 268.1640625 C-30.54325527 259.78046232 -30.54325527 259.78046232 -36.4375 253.3359375 C-38.97892241 252.6132205 -41.37787935 252.295788 -44 252 C-45.83263367 251.39085756 -47.64693348 250.7235138 -49.4375 250 C-50.24058594 249.690625 -51.04367188 249.38125 -51.87109375 249.0625 C-54.09815126 247.95101441 -55.45416675 246.94459915 -57 245 C-57.1875 242.3125 -57.1875 242.3125 -57 240 C-56.34 240 -55.68 240 -55 240 C-57.69278725 237.30721275 -59.30249032 237.67590689 -63.0625 237.5 C-67.87381335 237.20293986 -72.33130318 236.6254227 -77.00390625 235.4765625 C-81.34998129 234.43894771 -85.54148275 234 -90 234 C-90 233.34 -90 232.68 -90 232 C-90.886875 232.185625 -91.77375 232.37125 -92.6875 232.5625 C-95.92515117 232.99011431 -97.87947835 232.80013376 -101 232 C-101.86625 231.835 -102.7325 231.67 -103.625 231.5 C-106 231 -106 231 -109 230 C-109.33 228.02 -109.66 226.04 -110 224 C-109.01 223.67 -108.02 223.34 -107 223 C-107 222.34 -107 221.68 -107 221 C-104.79296628 220.03857983 -102.58446467 219.08080463 -100.375 218.125 C-99.44880859 217.72087891 -99.44880859 217.72087891 -98.50390625 217.30859375 C-94.71886423 215.6750493 -90.9245672 214.2578741 -87 213 C-85.9275 212.608125 -84.855 212.21625 -83.75 211.8125 C-81 211 -81 211 -79 212 C-78.67 211.34 -78.34 210.68 -78 210 C-68.58660077 205.14374171 -58.04587145 202.2481651 -48 199 C-47.98541748 198.24195068 -47.97083496 197.48390137 -47.95581055 196.70288086 C-47.31995027 166.90282838 -44.01391763 139.83572078 -33 112 C-31.99019831 109.33689554 -30.99456684 106.66885244 -30 104 C-32.97 102.68 -35.94 101.36 -39 100 C-38.9375 97.6875 -38.9375 97.6875 -38 95 C-36.27289661 94.31567602 -34.54261523 93.63682014 -32.7890625 93.0234375 C-29.43352772 91.10389577 -28.33135673 87.4813738 -27 84 C-25.68 84 -24.36 84 -23 84 C-22.34 85.65 -21.68 87.3 -21 89 C-19.02 85.7 -17.04 82.4 -15 79 C-16.134375 78.38125 -17.26875 77.7625 -18.4375 77.125 C-19.07558594 76.77695313 -19.71367188 76.42890625 -20.37109375 76.0703125 C-29.53859172 72.33792848 -39.47536096 72.36017409 -49.2265625 71.7890625 C-55.09664413 71.40907954 -60.43652629 70.95782066 -66 69 C-65.505 67.02 -65.505 67.02 -65 65 C-60.01841268 64.21616116 -55.10061475 63.79607837 -50.0625 63.5625 C-47.04055126 63.391096 -44.02012459 63.20090678 -41 63 C-39.93507324 62.92942383 -39.93507324 62.92942383 -38.84863281 62.85742188 C-28.74454939 62.11176789 -18.99778584 60.50021168 -11.2578125 53.40234375 C-2.79894116 42.81624145 -3.4195983 26.09094976 -2.7265625 13.21875 C-2.6867627 12.48350098 -2.64696289 11.74825195 -2.60595703 10.99072266 C-2.50584977 8.99180675 -2.42422495 6.99199001 -2.34375 4.9921875 C-2 2 -2 2 0 0 Z M-53 238 C-49 239 -49 239 -49 239 Z M-45 239 C-45 239.33 -45 239.66 -45 240 C-43.35 240 -41.7 240 -40 240 C-40 239.67 -40 239.34 -40 239 C-41.65 239 -43.3 239 -45 239 Z " fill="#FEFEFE" transform="translate(113,53)"/>
<path d="M0 0 C1.95703125 0.71875 1.95703125 0.71875 4 2 C4.57421875 4.09375 4.57421875 4.09375 4.6875 6.5 C4.83863315 9.8786171 4.83863315 9.8786171 6 13 C8.05931532 13.42961221 8.05931532 13.42961221 10.4375 13.5625 C14.81333333 13.90666667 14.81333333 13.90666667 17 15 C16.67 16.65 16.34 18.3 16 20 C12.37 20.33 8.74 20.66 5 21 C4.9175 22.77375 4.835 24.5475 4.75 26.375 C4.609375 29.3984375 4.609375 29.3984375 4 32 C2.078125 33.4140625 2.078125 33.4140625 0 34 C-0.66 33.67 -1.32 33.34 -2 33 C-2.35557331 30.74053416 -2.44330506 28.5100223 -2.55859375 26.2265625 C-3.09774761 23.50693685 -3.76959106 22.61982188 -6 21 C-8.04100238 20.42982192 -8.04100238 20.42982192 -10.1875 20.3125 C-11.445625 20.209375 -12.70375 20.10625 -14 20 C-14.38218767 18.34385343 -14.71395102 16.67542976 -15 15 C-13.26043342 13.26043342 -10.8063378 13.62809614 -8.4375 13.4375 C-7.42558594 13.35371094 -6.41367188 13.26992187 -5.37109375 13.18359375 C-4.58863281 13.12300781 -3.80617188 13.06242187 -3 13 C-2.95101562 12.22914062 -2.90203125 11.45828125 -2.8515625 10.6640625 C-2.77679688 9.66117188 -2.70203125 8.65828125 -2.625 7.625 C-2.52058594 6.12839844 -2.52058594 6.12839844 -2.4140625 4.6015625 C-2 2 -2 2 0 0 Z " fill="#FEFEFE" transform="translate(84,69)"/>
<path d="M0 0 C0.99 0.33 1.98 0.66 3 1 C3.33 2.65 3.66 4.3 4 6 C5.65 6.33 7.3 6.66 9 7 C9 7.99 9 8.98 9 10 C7.35 10.33 5.7 10.66 4 11 C3.34 12.98 2.68 14.96 2 17 C0.0625 16.1875 0.0625 16.1875 -2 15 C-2.33 14.01 -2.66 13.02 -3 12 C-5.00016466 10.79117904 -5.00016466 10.79117904 -7 10 C-7 9.01 -7 8.02 -7 7 C-5.35 6.67 -3.7 6.34 -2 6 C-1.855625 5.195625 -1.71125 4.39125 -1.5625 3.5625 C-1 1 -1 1 0 0 Z " fill="#FEFEFE" transform="translate(132,55)"/>
</svg>
